HIERARCHY
ROOT Hips
{
  OFFSET 0 0 0
  CHANNELS 6 Xposition Yposition Zposition Zrotation Yrotation Xrotation
  JOINT LeftThigh
  {
    OFFSET 8.409438 0 -5.917753
    CHANNELS 3 Zrotation Yrotation Xrotation
    JOINT LeftLeg
    {
      OFFSET 0 0 -42.358652
      CHANNELS 3 Zrotation Yrotation Xrotation
      JOINT LeftFoot
      {
        OFFSET 0 0 -39.357303
        CHANNELS 3 Zrotation Yrotation Xrotation
      }
    }
  }
  JOINT RightThigh
  {
    OFFSET -8.409438 0 -5.917753
    CHANNELS 3 Zrotation Yrotation Xrotation
    JOINT RightLeg
    {
      OFFSET 0 0 -42.358652
      CHANNELS 3 Zrotation Yrotation Xrotation
      JOINT RightFoot
      {
        OFFSET 0 0 -39.357303
        CHANNELS 3 Zrotation Yrotation Xrotation
      }
    }
  }
  JOINT SpineLow
  {
    OFFSET 0 0 4.719101
    CHANNELS 3 Zrotation Yrotation Xrotation
    JOINT SpineMid
    {
      OFFSET 0 0 12.899191
      CHANNELS 3 Zrotation Yrotation Xrotation
      JOINT Chest
      {
        OFFSET 0 0 12.899191
        CHANNELS 3 Zrotation Yrotation Xrotation
        JOINT LeftShoulder
        {
          OFFSET 7.550562 1.41573 9.438202
          CHANNELS 3 Zrotation Yrotation Xrotation
          JOINT LeftArm
          {
            OFFSET 9.155056 0 4.247191
            CHANNELS 3 Zrotation Yrotation Xrotation
            JOINT LeftForearm
            {
              OFFSET 0 0 25.771955
              CHANNELS 3 Zrotation Yrotation Xrotation
              JOINT LeftHand
              {
                OFFSET 0 0 25.197169
                CHANNELS 3 Zrotation Yrotation Xrotation
              }
            }
          }
        }
        JOINT RightShoulder
        {
          OFFSET -7.550562 1.41573 9.438202
          CHANNELS 3 Zrotation Yrotation Xrotation
          JOINT RightArm
          {
            OFFSET -9.155056 0 4.247191
            CHANNELS 3 Zrotation Yrotation Xrotation
            JOINT RightForearm
            {
              OFFSET 0 0 -25.771955
              CHANNELS 3 Zrotation Yrotation Xrotation
              JOINT RightHand
              {
                OFFSET 0 0 -25.197169
                CHANNELS 3 Zrotation Yrotation Xrotation
              }
            }
          }
        }
        JOINT Neck
        {
          OFFSET 0 0 15.101124
          CHANNELS 3 Zrotation Yrotation Xrotation
          JOINT Head
          {
            OFFSET 0 0 11.325843
            CHANNELS 3 Zrotation Yrotation Xrotation
            End Site
            {
              OFFSET 0 0 14.157303
            }
          }
        }
      }
    }
  }
}
MOTION
Frames: 10
Frame Time: 0.0
0.0  89.887642  0.0  16.65169  -15.62886  -116.353732  40.230645  10.909607  -75.254313  -17.797326  28.880207  106.036846  -0.538466  2.26957  -3.282996  -1.304178  12.546209  9.326371  14.329732  3.283157  18.148997  8.863774  3.012907  3.309266  1.92159  -0.125102  2.021891  5.23789  -0.501929  5.512785  5.237889  -0.501929  5.512784  -6.644625  27.741673  20.167929  -167.77675  54.136618  -147.55914  -24.690436  -18.510603  73.523237  78.521134  9.672107  42.862206  -3.662169  3.639433  22.252886  76.690992  49.791908  8.226716  -21.96361  9.527538  -53.142364  81.208188  -1.404078  -25.470774  -10.514994  6.879374  3.776909  -7.91977  5.096656  2.949183  
0.0  89.887642  0.0  16.247854  -15.198951  -115.660256  39.941275  10.857063  -74.792285  -17.702823  27.460771  106.456777  -1.510889  2.0916  -3.793813  -1.371686  12.200278  8.893199  14.093895  3.198204  18.011078  8.692479  3.01089  3.345529  1.973927  -0.132717  2.007292  5.380351  -0.52588  5.471807  5.380352  -0.52588  5.471806  -6.740551  27.640556  20.165035  -166.753906  54.285511  -146.654528  -24.412653  -19.130067  73.88597  80.706568  10.181026  45.731004  -4.402798  3.76684  21.818342  76.890579  49.638192  8.629873  -21.858636  9.164227  -53.358716  81.652455  -0.983162  -26.163158  -10.889989  6.756769  3.529165  -8.197474  5.006855  2.765747  
0.0  89.887642  0.0  15.82643  -14.652387  -114.89516  39.582442  10.951706  -74.290444  -17.597437  26.954344  106.19298  -1.715346  2.103888  -3.764017  -1.379013  11.894122  8.462554  13.819539  3.063084  17.845099  8.49684  2.987728  3.418596  2.014981  -0.138494  1.984622  5.492234  -0.543157  5.409011  5.492234  -0.543157  5.40901  -6.959818  27.586359  20.055644  -165.680203  54.571664  -145.68224  -24.090258  -19.89863  74.132711  82.696624  10.689117  48.630572  -4.718614  3.86741  21.638202  76.719415  49.55754  8.832315  -21.963358  8.871094  -53.539187  82.116892  -0.643688  -26.803144  -11.402946  6.642216  3.223632  -8.578034  4.923782  2.540502  
0.0  89.887642  0.0  15.416466  -14.073582  -114.157584  39.245764  11.095052  -73.674291  -17.51831  26.262344  105.942112  -1.829718  2.142202  -3.662841  -1.51318  11.570019  7.996065  13.817224  2.959496  17.775905  8.283343  2.972224  3.466209  2.056848  -0.159734  1.965136  5.605086  -0.602891  5.35359  5.605086  -0.602891  5.353591  -6.968625  27.628571  20.044389  -164.733452  54.864426  -144.563727  -23.64031  -20.852121  74.256815  84.508465  11.106795  51.487306  -5.357592  4.099067  21.243327  76.829298  49.218887  9.078364  -22.030156  8.596519  -53.782357  82.669868  -0.408059  -27.323658  -11.784817  6.581757  2.993136  -8.86145  4.880959  2.370856  
0.0  89.887642  0.0  15.010286  -13.37701  -113.407888  38.855079  11.321813  -72.944425  -17.478616  25.567551  105.563579  -2.030304  2.16747  -3.592723  -1.561965  11.330599  7.575345  13.5223  2.807808  17.628114  8.028849  2.954237  3.502047  2.093376  -0.183454  1.938082  5.703288  -0.668245  5.27728  5.703288  -0.668245  5.27728  -7.080066  27.675799  19.974764  -163.792796  55.062934  -143.479459  -23.081838  -21.948255  74.308434  86.178898  11.387799  54.271621  -5.619294  4.281314  21.053354  76.446673  49.053603  9.257904  -22.150216  8.229314  -54.075529  83.20253  -0.261112  -27.69537  -12.355964  6.558384  2.727865  -9.286403  4.866172  2.177851  
0.0  89.887642  0.0  14.628984  -12.631553  -112.638661  38.468373  11.520103  -72.130123  -17.359071  24.746208  105.206192  -2.284536  2.183466  -3.541586  -1.807533  11.105057  7.065858  13.225557  2.702547  17.458608  7.864765  2.94592  3.581766  2.159602  -0.206414  1.93297  5.882446  -0.735717  5.260511  5.882447  -0.735717  5.260511  -7.296915  27.680889  19.773226  -162.983965  55.171985  -142.32077  -22.385438  -23.223426  74.261469  87.738025  11.36041  56.964585  -6.247431  4.37322  20.672017  76.116364  48.905684  9.511663  -22.158333  7.830458  -54.453384  83.619342  -0.202553  -27.968236  -12.948606  6.520665  2.438774  -9.727217  4.841551  1.966866  
0.0  89.887642  0.0  14.257171  -11.852939  -111.85372  38.086943  11.627453  -71.244098  -17.085852  24.054091  104.774947  -2.506098  2.18868  -3.492434  -1.956871  10.91977  6.531503  12.90367  2.559612  17.3612  7.638446  2.943191  3.640734  2.199186  -0.218307  1.926188  5.989735  -0.770696  5.240412  5.989735  -0.770696  5.240411  -7.401032  27.60339  19.482011  -162.303201  55.194018  -141.303001  -21.589498  -24.705335  74.161713  89.146651  11.061044  59.458461  -6.490405  4.465151  20.281894  75.728389  48.690036  9.764024  -22.361627  7.543986  -54.844187  83.919964  -0.202304  -28.178005  -13.578999  6.4514  2.095538  -10.195776  4.794908  1.714912  
0.0  89.887642  0.0  13.923026  -11.078651  -111.112275  37.77532  11.595123  -70.258076  -16.63844  23.429853  104.322348  -2.670426  2.190764  -3.419032  -2.033232  10.665389  6.077224  12.530792  2.523685  17.296788  7.440485  2.946104  3.647244  2.238507  -0.231546  1.937195  6.095957  -0.810939  5.268731  6.095958  -0.810939  5.268731  -7.490134  27.488312  19.089312  -161.842041  55.127021  -140.463469  -20.776545  -26.45264  74.099759  90.42389  10.480518  61.797167  -6.775688  4.457202  19.851375  75.552541  48.433126  10.142412  -22.625224  7.499999  -55.245996  84.170406  -0.231505  -28.178212  -14.115394  6.385678  1.752217  -10.594008  4.751877  1.461798  
0.0  89.887642  0.0  13.575438  -10.230893  -110.327684  37.431588  11.492984  -69.244866  -16.072136  22.883718  103.808501  -2.790669  2.194371  -3.306044  -2.312296  10.46554  5.466045  12.223041  2.499944  17.28378  7.259956  2.964327  3.676215  2.249164  -0.240402  1.929649  6.124485  -0.835255  5.247165  6.124485  -0.835255  5.247165  -7.432795  27.314048  18.792599  -161.498399  55.059215  -139.735907  -19.969377  -28.414714  74.073277  91.565592  9.58705  63.887478  -6.846877  4.586913  19.487096  75.250048  48.229679  10.412538  -22.957141  7.404144  -55.747711  84.407005  -0.231444  -28.019065  -14.690425  6.312963  1.394887  -11.021144  4.704471  1.19827  
0.0  89.887642  0.0  13.226952  -9.335894  -109.497004  37.07903  11.366051  -68.191886  -15.438745  22.305943  103.269149  -2.93688  2.195607  -3.178418  -2.443395  10.108469  5.033759  11.807496  2.592633  17.170907  7.100784  3.042505  3.677478  2.250886  -0.239446  1.91694  6.129446  -0.831607  5.212521  6.129446  -0.831607  5.212521  -7.435049  27.063085  18.472685  -161.09986  54.874143  -139.115674  -19.082796  -30.598172  74.182838  92.562287  8.473818  65.62666  -6.901044  4.479508  19.216894  75.097167  48.069142  10.807597  -23.358636  7.477415  -56.270855  84.586834  -0.314971  -27.784588  -15.162609  6.211414  1.058353  -11.3716  4.635719  0.948375  
